<svg width="455" height="155" viewBox="0 0 455 155" fill="none" xmlns="http://www.w3.org/2000/svg">
<g filter="url(#filter0_dii_273_6)">
<path d="M32.3921 52.174C32.3061 52.346 32.2201 52.518 32.1341 52.604C32.1341 52.862 32.1341 53.034 32.2201 53.12C31.7901 53.206 31.5321 53.12 31.2741 52.862L30.1561 53.98C31.1881 53.636 32.2201 53.292 33.3381 52.862H43.6581L48.8181 54.41C50.5381 54.926 52.4301 55.356 53.7201 55.872C54.5801 55.614 55.9561 54.754 57.1601 54.152L60.7721 52.174L61.7181 53.12L55.2681 59.57H50.0221L42.7121 56.474H24.5661L32.4781 48.562L32.5641 48.39L23.2761 56.99L42.9701 57.764V59.742H16.6541L36.9501 39.446L37.9821 37.21L42.9701 33.426L58.7081 17.688L64.4701 17L63.0081 21.128L33.3381 50.884L32.7361 51.658L32.5641 51.83C32.4781 51.916 32.3921 52.002 32.3921 52.002V52.174ZM75.5607 54.41H101.447L124.839 59.742V61.118H109.617L107.983 60.602V61.29H56.0387L75.1307 42.198L74.8727 41.94L86.3967 30.502L82.0967 28.008V26.632H88.2887L88.9767 27.234V26.46H114.605V26.116H123.721L112.541 37.382L110.649 35.576L109.101 35.232L109.187 32.394L109.617 31.964H102.221L102.049 33.426H91.6427L91.0407 33.082L90.1807 34.888L81.6667 43.402H89.4927L89.5787 42.026H94.8247L99.5547 47.358V48.734H96.4587L96.1147 48.218V48.906H83.3867V49.25H79.6027V46.67L79.2587 45.81L69.2827 55.786H75.3027L75.5607 54.41ZM93.1907 44.004V45.638H90.1807L95.2547 46.756L93.6207 44.004H93.1907ZM100.931 29.814L90.7827 28.696L92.3307 29.986H92.4167V30.072L94.0507 31.448H94.8247V29.814H100.931ZM78.3987 58.022L103.511 59.14L95.4267 56.388H93.4487V58.022H78.3987ZM128.107 28.266L135.503 21.988V39.876L130.171 53.378H128.795V44.606L129.311 43.66H128.623V36.866L121.657 42.8H124.495L128.537 48.218V49.594H125.871L125.613 48.992V49.766H114.777V50.11H113.573L108.671 54.238L107.037 52.26L105.231 52.088L106.177 48.734L127.935 30.244C127.935 29.642 128.021 28.954 128.107 28.266ZM123.119 44.778V46.412H120.539L124.839 47.53L123.463 44.778H123.119ZM120.023 44.262V44.176L119.937 44.262H120.023ZM133.525 35.748V34.114L131.891 35.232V29.814L129.397 31.878L131.633 30.33C131.547 32.394 131.375 34.2 131.203 35.834L131.117 36.952V37.554L131.031 38.242L130.859 41.08L132.235 38.672C132.407 38.328 132.665 37.984 132.923 37.468C133.095 37.038 133.353 36.436 133.525 35.748ZM180.368 39.188L160.932 58.624L152.16 69.288L152.246 69.374L140.894 80.812L135.39 74.448L129.886 59.914L130.918 59.054L137.196 66.192C137.626 68.342 138.056 70.492 138.658 72.642L141.066 75.48L155.858 60.602V60.43L148.204 67.482L144.334 71.008L142.614 72.556L141.152 73.932L139.346 71.61L140.722 70.062L141.238 70.664L157.664 54.152L151.73 57.678L137.54 53.808L136.164 53.55C136.25 53.464 136.25 53.464 136.336 53.378L138.4 48.906L146.398 41.682L157.75 30.502C159.556 29.298 161.018 28.352 162.394 27.492C163.77 29.298 164.974 30.932 165.92 32.308L166.178 32.566C166.178 32.652 166.264 32.738 166.264 32.824L166.522 33.168L166.952 33.942L167.812 35.49L170.392 40.048L173.316 38.242H173.488L176.068 35.576H181.228L180.368 39.188ZM150.956 50.798L156.202 48.648L168.5 41.166L160.502 33.77L151.644 42.628L160.416 34.802L161.792 36.264L147.086 50.712L150.87 51.744V51.658C150.956 51.486 150.956 51.4 150.956 51.228C150.87 51.142 150.87 51.142 150.87 51.056V50.97C150.784 50.97 150.87 50.97 150.87 50.884L150.956 50.798ZM229.298 29.04L219.15 39.188L217.688 39.876L218.204 40.392L201.778 56.732H180.88L178.214 46.154L189.566 34.802L189.308 34.544L201.778 22.074L203.67 23.966L205.992 23.45L204.014 28.18L184.32 47.874L185.18 51.228H191.458L191.716 49.852H198.94L208.916 39.79L228.352 28.008L229.298 29.04ZM200.574 53.722L213.646 41.768L206.25 45.294L205.046 46.498L206.164 47.702L200.488 53.464H194.382L200.574 53.722ZM240.979 43.316H229.025V42.714L223.693 48.132L223.865 48.734C224.209 48.648 224.639 48.648 224.983 48.562L225.843 51.744H233.411L236.249 52.604L237.711 53.12C238.313 53.206 238.399 53.378 238.743 53.55C239.001 53.55 239.173 53.464 239.517 53.378L240.463 53.034L246.397 50.97L247.085 51.916L239.947 57.162H238.227L237.195 56.732V57.248H221.629L218.791 46.756L231.347 34.2L231.175 34.028L236.163 29.04L230.487 27.406V26.288H238.829L239.001 26.202L239.087 26.288H240.291L241.323 26.718V26.202H265.317L248.461 43.058H240.979V43.316ZM228.681 54.668H223.693L222.661 50.97L223.521 54.84L234.615 55.528L229.799 53.292H228.681V54.668ZM259.125 28.782L244.161 27.922L249.407 30.158H250.611V28.782H258.953L258.093 29.728L259.125 28.782ZM245.451 31.706L241.151 30.502L241.065 30.76L233.153 38.672H246.655L253.793 31.448C253.191 31.534 252.589 31.62 251.987 31.706H245.451ZM339.734 22.246L341.454 21.558L304.044 58.968H265.688L285.038 39.618L284.78 39.446L304.13 20.096L305.936 21.988L309.032 20.698L305.248 27.234L279.018 53.464H298.712L299.142 52.088H301.12L324.34 28.954L324.77 28.61L325.028 28.352C325.114 28.352 325.114 28.352 325.114 28.352C325.2 28.438 325.286 28.438 325.372 28.438C325.544 28.438 325.802 28.352 326.06 28.18C326.662 28.008 327.522 27.492 328.64 26.718C328.554 26.46 327.952 26.116 326.748 25.772C326.49 25.686 326.146 25.6 325.802 25.514L325.2 25.428L324.942 25.342H324.512L321.502 24.826L309.29 22.934V21.558H337.154C338.186 21.73 339.132 21.902 339.992 22.074L339.734 22.246ZM303.098 55.27L330.188 29.728C328.984 30.502 327.952 31.276 327.178 31.706L324.598 33.34L319.438 36.608L317.46 38.586L318.578 39.704L303.098 55.27ZM376.42 18.462L385.622 23.794V25.17H379.602L379 24.654V25.342H359.736L358.79 26.288L353.63 27.062L346.75 33.942H347.696L354.576 27.922L355.952 29.298L351.394 33.942H363.95V33.598H369.798V36.178L370.486 37.468L368.938 39.446H354.49L354.404 40.822H346.32L345.288 40.048L339.44 45.81L339.096 47.358L336 49.336L326.798 58.452L322.412 57.85L322.67 54.84L339.956 37.554L340.558 36.608L339.01 35.49V34.114H342.364L342.536 33.77L342.45 34.114H343.396L343.912 33.598L343.052 32.48L349.846 25.686H347.008V23.106L346.148 21.816L348.126 19.838H366.186L366.358 18.462H376.42ZM353.458 37.21L348.728 36.522L347.352 37.984L348.212 38.844H348.814V37.21H353.458ZM342.794 38.242L342.536 38.07L341.074 39.618V39.704L342.794 38.242ZM367.476 22.074L377.28 23.192L374.098 20.44H373.324V22.074H367.476Z" fill="#00CCFF"/>
</g>
<g filter="url(#filter1_dii_273_6)">
<path d="M176.494 80.244L187.158 71.214V93.488L181.826 112.838H180.45V100.196L180.966 98.82H180.278V86.178L163.25 100.626H166.518L166.604 99.25H172.968L178.73 104.582V105.958H174.946L174.516 105.442V106.13H159.036V106.474H156.886L149.404 112.838L147.684 110.86L145.534 110.946L147.426 106.818L176.838 81.792C176.752 81.362 176.58 80.846 176.494 80.244ZM170.99 101.228V102.862H167.292L173.484 103.98L171.506 101.228H170.99ZM185.18 88.414V86.866H183.546V79.04L180.02 82.05L183.288 79.556L182.428 95.208L185.18 88.414ZM224.238 63.044L226.216 64.764L228.108 64.592L227.248 68.462L205.748 92.886L206.694 94.004L198.094 103.722C197.406 103.894 196.374 104.41 195.084 105.27C194.138 106.044 194.396 106.646 195.858 107.248C196.202 107.42 196.632 107.506 197.148 107.678C197.406 107.678 197.664 107.764 198.008 107.85L198.438 107.936L198.868 108.022L202.05 108.71L202.222 110.086L185.366 111.634C184.936 111.462 184.678 111.29 184.42 111.204L182.872 112.064L181.496 112.15L215.81 73.192L215.552 72.934L224.238 63.044ZM195.686 100.97L202.652 93.058C198.352 97.444 194.912 100.798 188.892 107.076C192.332 104.582 194.826 103.12 196.288 102.776L196.89 102.088L195.686 100.97ZM251.764 89.188L232.328 108.624L223.556 119.288L223.642 119.374L212.29 130.812L206.786 124.448L201.282 109.914L202.314 109.054L208.592 116.192C209.022 118.342 209.452 120.492 210.054 122.642L212.462 125.48L227.254 110.602V110.43L219.6 117.482L215.73 121.008L214.01 122.556L212.548 123.932L210.742 121.61L212.118 120.062L212.634 120.664L229.06 104.152L223.126 107.678L208.936 103.808L207.56 103.55C207.646 103.464 207.646 103.464 207.732 103.378L209.796 98.906L217.794 91.682L229.146 80.502C230.952 79.298 232.414 78.352 233.79 77.492C235.166 79.298 236.37 80.932 237.316 82.308L237.574 82.566C237.574 82.652 237.66 82.738 237.66 82.824L237.918 83.168L238.348 83.942L239.208 85.49L241.788 90.048L244.712 88.242H244.884L247.464 85.576H252.624L251.764 89.188ZM222.352 100.798L227.598 98.648L239.896 91.166L231.898 83.77L223.04 92.628L231.812 84.802L233.188 86.264L218.482 100.712L222.266 101.744V101.658C222.352 101.486 222.352 101.4 222.352 101.228C222.266 101.142 222.266 101.142 222.266 101.056V100.97C222.18 100.97 222.266 100.97 222.266 100.884L222.352 100.798ZM287.519 79.04H294.485L288.465 85.146C288.379 85.404 288.293 85.662 288.207 85.92L288.035 86.35L287.949 86.694L287.691 87.984L269.201 106.474H258.795L256.731 105.098H249.679L249.593 100.798L249.249 100.368C249.163 100.196 249.077 99.938 248.991 99.68C248.733 99.25 248.561 98.648 248.389 98.132L248.475 97.874L261.461 84.888L266.793 79.556L273.759 78.266L273.329 80.588L253.721 100.196V100.884H266.965L274.963 92.886L280.639 87.726L285.627 82.738H273.071V81.62H285.627L285.885 81.104H279.177V80.33H284.767C285.455 79.9 286.315 79.47 287.519 79.04ZM267.567 102.346L275.307 94.52L274.877 94.09L267.309 101.744H258.623V102.346H267.567ZM288.386 102.174C288.3 102.346 288.214 102.518 288.128 102.604C288.128 102.862 288.128 103.034 288.214 103.12C287.784 103.206 287.526 103.12 287.268 102.862L286.15 103.98C287.182 103.636 288.214 103.292 289.332 102.862H299.652L304.812 104.41C306.532 104.926 308.424 105.356 309.714 105.872C310.574 105.614 311.95 104.754 313.154 104.152L316.766 102.174L317.712 103.12L311.262 109.57H306.016L298.706 106.474H280.56L288.472 98.562L288.558 98.39L279.27 106.99L298.964 107.764V109.742H272.648L292.944 89.446L293.976 87.21L298.964 83.426L314.702 67.688L320.464 67L319.002 71.128L289.332 100.884L288.73 101.658L288.558 101.83C288.472 101.916 288.386 102.002 288.386 102.002V102.174ZM357.394 79.04H364.36L358.34 85.146C358.254 85.404 358.168 85.662 358.082 85.92L357.91 86.35L357.824 86.694L357.566 87.984L339.076 106.474H328.67L326.606 105.098H319.554L319.468 100.798L319.124 100.368C319.038 100.196 318.952 99.938 318.866 99.68C318.608 99.25 318.436 98.648 318.264 98.132L318.35 97.874L331.336 84.888L336.668 79.556L343.634 78.266L343.204 80.588L323.596 100.196V100.884H336.84L344.838 92.886L350.514 87.726L355.502 82.738H342.946V81.62H355.502L355.76 81.104H349.052V80.33H354.642C355.33 79.9 356.19 79.47 357.394 79.04ZM337.442 102.346L345.182 94.52L344.752 94.09L337.184 101.744H328.498V102.346H337.442ZM392.606 89.188L373.17 108.624L364.398 119.288L364.484 119.374L353.132 130.812L347.628 124.448L342.124 109.914L343.156 109.054L349.434 116.192C349.864 118.342 350.294 120.492 350.896 122.642L353.304 125.48L368.096 110.602V110.43L360.442 117.482L356.572 121.008L354.852 122.556L353.39 123.932L351.584 121.61L352.96 120.062L353.476 120.664L369.902 104.152L363.968 107.678L349.778 103.808L348.402 103.55C348.488 103.464 348.488 103.464 348.574 103.378L350.638 98.906L358.636 91.682L369.988 80.502C371.794 79.298 373.256 78.352 374.632 77.492C376.008 79.298 377.212 80.932 378.158 82.308L378.416 82.566C378.416 82.652 378.502 82.738 378.502 82.824L378.76 83.168L379.19 83.942L380.05 85.49L382.63 90.048L385.554 88.242H385.726L388.306 85.576H393.466L392.606 89.188ZM363.194 100.798L368.44 98.648L380.738 91.166L372.74 83.77L363.882 92.628L372.654 84.802L374.03 86.264L359.324 100.712L363.108 101.744V101.658C363.194 101.486 363.194 101.4 363.194 101.228C363.108 101.142 363.108 101.142 363.108 101.056V100.97C363.022 100.97 363.108 100.97 363.108 100.884L363.194 100.798ZM401.379 82.394L411.871 79.47L412.903 80.416L408.517 84.802L407.657 84.888L408.173 85.404L390.027 103.55L390.285 103.722L384.867 109.14L383.061 107.334L381.513 106.99L381.599 104.152L394.843 90.908L393.983 89.79L401.379 82.394ZM397.337 91.51L405.335 85.146L401.035 85.49L400.519 86.092L401.637 87.21L397.337 91.51ZM417.891 76.03L416.773 75.17L416.085 75.858L416.859 76.804L415.483 78.18L414.967 78.782L411.613 76.46L410.839 75.342L411.097 75.084L415.569 70.44L416.429 70.096L418.751 67.688L419.525 68.462L418.579 69.494L418.923 69.838L419.439 69.322L419.955 69.838L419.611 70.268L420.385 71.3L419.525 72.16L420.471 73.364L417.891 76.03ZM414.967 73.106L416.515 71.558L416.085 71.042L414.451 72.676L414.967 73.106ZM434.972 80.33L438.584 85.146L437.81 86.694L430.844 83.082C430.93 82.48 430.844 81.792 430.414 81.018C429.984 80.416 429.21 80.244 428.092 80.416L414.074 94.692L414.59 95.294L429.124 81.448L430.758 83.254L412.698 101.314C412.44 101.228 412.182 101.314 412.01 101.486L412.096 101.572L412.182 101.83L412.87 103.378C413.214 104.324 413.3 103.98 413.386 103.98C413.386 103.98 413.3 103.98 413.3 104.066V104.152C413.214 104.582 413.128 105.012 413.214 105.442L418.116 105.356L418.976 104.152L424.136 103.894L427.404 108.108L424.566 110.516L408.226 110.602L405.388 99.25L411.408 93.316L412.526 90.822L414.848 88.414L414.074 90.564L416.31 88.414L415.192 87.124L426.028 76.288C427.232 75.514 428.436 74.912 429.382 74.482C430.844 75.686 432.134 76.89 433.08 77.836L433.424 78.18L433.596 78.524L434.026 79.126L434.972 80.33ZM417.084 108.108V108.538H421.642V108.882H423.706V107.506H421.642V108.022L417.084 108.108Z" fill="#00CCFF"/>
</g>
<defs>
<filter id="filter0_dii_273_6" x="0.654083" y="9" width="400.968" height="95.812" filterUnits="userSpaceOnUse" color-interpolation-filters="sRGB">
<feFlood flood-opacity="0" result="BackgroundImageFix"/>
<feColorMatrix in="SourceAlpha" type="matrix" values="0 0 0 0 0 0 0 0 0 0 0 0 0 0 0 0 0 0 127 0" result="hardAlpha"/>
<feOffset dy="8"/>
<feGaussianBlur stdDeviation="8"/>
<feColorMatrix type="matrix" values="0 0 0 0 0 0 0 0 0 0 0 0 0 0 0 0 0 0 0.6 0"/>
<feBlend mode="normal" in2="BackgroundImageFix" result="effect1_dropShadow_273_6"/>
<feBlend mode="normal" in="SourceGraphic" in2="effect1_dropShadow_273_6" result="shape"/>
<feColorMatrix in="SourceAlpha" type="matrix" values="0 0 0 0 0 0 0 0 0 0 0 0 0 0 0 0 0 0 127 0" result="hardAlpha"/>
<feOffset dy="-4"/>
<feGaussianBlur stdDeviation="4"/>
<feComposite in2="hardAlpha" operator="arithmetic" k2="-1" k3="1"/>
<feColorMatrix type="matrix" values="0 0 0 0 0.4 0 0 0 0 0.3 0 0 0 0 0.1 0 0 0 0.8 0"/>
<feBlend mode="normal" in2="shape" result="effect2_innerShadow_273_6"/>
<feColorMatrix in="SourceAlpha" type="matrix" values="0 0 0 0 0 0 0 0 0 0 0 0 0 0 0 0 0 0 127 0" result="hardAlpha"/>
<feOffset dy="2"/>
<feGaussianBlur stdDeviation="2"/>
<feComposite in2="hardAlpha" operator="arithmetic" k2="-1" k3="1"/>
<feColorMatrix type="matrix" values="0 0 0 0 0.9 0 0 0 0 0.8 0 0 0 0 0.5 0 0 0 0.6 0"/>
<feBlend mode="normal" in2="effect2_innerShadow_273_6" result="effect3_innerShadow_273_6"/>
</filter>
<filter id="filter1_dii_273_6" x="129.534" y="55.044" width="325.05" height="99.768" filterUnits="userSpaceOnUse" color-interpolation-filters="sRGB">
<feFlood flood-opacity="0" result="BackgroundImageFix"/>
<feColorMatrix in="SourceAlpha" type="matrix" values="0 0 0 0 0 0 0 0 0 0 0 0 0 0 0 0 0 0 127 0" result="hardAlpha"/>
<feOffset dy="8"/>
<feGaussianBlur stdDeviation="8"/>
<feColorMatrix type="matrix" values="0 0 0 0 0 0 0 0 0 0 0 0 0 0 0 0 0 0 0.6 0"/>
<feBlend mode="normal" in2="BackgroundImageFix" result="effect1_dropShadow_273_6"/>
<feBlend mode="normal" in="SourceGraphic" in2="effect1_dropShadow_273_6" result="shape"/>
<feColorMatrix in="SourceAlpha" type="matrix" values="0 0 0 0 0 0 0 0 0 0 0 0 0 0 0 0 0 0 127 0" result="hardAlpha"/>
<feOffset dy="-4"/>
<feGaussianBlur stdDeviation="4"/>
<feComposite in2="hardAlpha" operator="arithmetic" k2="-1" k3="1"/>
<feColorMatrix type="matrix" values="0 0 0 0 0.4 0 0 0 0 0.3 0 0 0 0 0.1 0 0 0 0.8 0"/>
<feBlend mode="normal" in2="shape" result="effect2_innerShadow_273_6"/>
<feColorMatrix in="SourceAlpha" type="matrix" values="0 0 0 0 0 0 0 0 0 0 0 0 0 0 0 0 0 0 127 0" result="hardAlpha"/>
<feOffset dy="2"/>
<feGaussianBlur stdDeviation="2"/>
<feComposite in2="hardAlpha" operator="arithmetic" k2="-1" k3="1"/>
<feColorMatrix type="matrix" values="0 0 0 0 0.9 0 0 0 0 0.8 0 0 0 0 0.5 0 0 0 0.6 0"/>
<feBlend mode="normal" in2="effect2_innerShadow_273_6" result="effect3_innerShadow_273_6"/>
</filter>
</defs>
</svg>
